<svg width="26" height="28" viewBox="0 0 26 28" fill="currentColor" xmlns="http://www.w3.org/2000/svg">
<path d="M15.5479 4.2C15.5479 3.08609 15.1182 2.0178 14.3533 1.23015C13.5885 0.442499 12.5512 0 11.4695 0C10.3879 0 9.35051 0.442499 8.58567 1.23015C7.82083 2.0178 7.39115 3.08609 7.39115 4.2V13.314L5.5287 12.264C4.77985 11.8434 3.91384 11.6991 3.07441 11.8551C2.23497 12.0112 1.47259 12.4581 0.913817 13.1219C0.35504 13.7856 0.0334655 14.6261 0.00247032 15.504C-0.0285249 16.3819 0.232923 17.2442 0.743417 17.948L8.07088 28H23.5415L25.2 14.378L15.5479 11.578V4.2ZM22.2092 16.422L21.1488 25.2H9.43033L2.91854 16.254C2.75965 16.0594 2.6747 15.8121 2.67946 15.5579C2.68422 15.3037 2.77837 15.06 2.94443 14.8719C3.11049 14.6838 3.33718 14.5641 3.58243 14.535C3.82768 14.506 4.07482 14.5696 4.278 14.714L10.1101 18.046V4.2C10.1101 3.8287 10.2533 3.4726 10.5082 3.21005C10.7632 2.9475 11.109 2.8 11.4695 2.8C11.8301 2.8 12.1758 2.9475 12.4308 3.21005C12.6857 3.4726 12.829 3.8287 12.829 4.2V13.65L22.2092 16.422Z" fill="black"/>
</svg>
