<svg width="86" height="28" viewBox="0 0 86 28" fill="none" xmlns="http://www.w3.org/2000/svg">
<path d="M8.21192 7.81457H0V0H25.6954V7.81457H17.4834V27.8146H8.21192V7.81457Z" fill="currentColor"/>
<path d="M27.8146 0H38.4106C49.5364 0 54.9669 5.43046 54.9669 13.6424V13.7748C54.9669 21.9868 49.2715 27.8146 38.0133 27.8146H27.8146V0ZM37.0861 8.07947V19.7351H38.6755C42.9139 19.7351 45.6954 18.0132 45.6954 13.9073V13.7748C45.6954 9.80132 42.9139 7.94702 38.6755 7.94702H37.0861V8.07947Z" fill="white"/>
<path d="M57.6159 0H66.8874V10.4636L74.8345 0H85.6954L76.0265 12.053L85.8278 27.8146H74.702L69.2715 18.9404L66.8874 21.8543V27.8146H57.6159V0Z" fill="white"/>
</svg>
